<?xml version="1.0" standalone="no"?>
<!DOCTYPE svg PUBLIC "-//W3C//DTD SVG 20010904//EN"
 "http://www.w3.org/TR/2001/REC-SVG-20010904/DTD/svg10.dtd">
<svg version="1.0" xmlns="http://www.w3.org/2000/svg"
 width="360.000000pt" height="226.000000pt" viewBox="0 0 360.000000 226.000000"
 preserveAspectRatio="xMidYMid meet">

<g transform="translate(0.000000,226.000000) scale(0.100000,-0.100000)"
fill="#000000" stroke="none">
<path d="M1720 2148 c0 -48 23 -101 77 -179 70 -103 93 -153 93 -207 0 -86
-48 -129 -135 -120 -58 7 -93 31 -112 75 -13 32 -13 44 1 106 18 80 20 117 6
117 -5 0 -10 -5 -10 -11 0 -7 -16 -36 -36 -66 -67 -100 -57 -154 46 -268 86
-94 107 -145 91 -212 -24 -93 -73 -133 -166 -133 -69 0 -110 17 -165 67 -55
48 -79 103 -80 173 0 47 9 73 60 180 37 78 62 144 66 175 l5 50 -20 -42 c-11
-24 -71 -96 -134 -161 -140 -144 -170 -196 -171 -297 -1 -61 3 -78 33 -132 18
-34 41 -69 51 -78 10 -9 81 -35 159 -59 l142 -44 6 30 c3 18 20 40 42 56 20
15 39 32 44 39 13 20 42 8 45 -20 2 -15 8 -27 13 -27 10 0 12 -43 2 -53 -3 -4
-12 -2 -18 3 -9 8 -15 6 -19 -6 -4 -10 -1 -21 6 -25 9 -6 9 -11 -1 -22 -10
-13 1 -19 75 -44 l88 -29 105 47 c58 25 160 70 226 98 207 90 212 92 225 120
6 14 11 54 11 89 0 79 -28 141 -101 232 -63 79 -76 103 -111 205 -27 79 -27
80 -34 44 -4 -24 0 -52 13 -90 11 -30 32 -87 47 -128 35 -98 30 -146 -25 -205
-37 -39 -41 -41 -98 -41 -48 0 -67 5 -92 24 -26 19 -34 21 -42 10 -8 -11 -9
-11 -5 1 2 8 -2 28 -10 44 -23 45 -12 102 35 174 48 75 60 135 38 205 -17 57
-45 96 -148 204 -44 45 -85 98 -93 118 -18 40 -25 44 -25 13z m210 -798 c0 6
5 8 10 5 6 -4 8 -11 5 -16 -8 -12 -62 -12 -69 0 -9 14 16 20 37 9 11 -6 17 -5
17 2z m253 -130 c-3 -11 -11 -20 -18 -20 -10 0 -11 5 -2 24 14 28 28 25 20 -4z
m27 6 c0 -3 -4 -8 -10 -11 -5 -3 -10 -1 -10 4 0 6 5 11 10 11 6 0 10 -2 10 -4z
m-706 -57 c-2 -4 0 -10 6 -14 5 -3 10 -18 10 -33 0 -18 -3 -23 -8 -14 -5 7
-16 10 -25 7 -10 -4 -20 1 -27 15 -7 13 -8 20 -2 16 6 -3 13 2 16 12 4 10 13
19 21 19 8 0 12 -4 9 -8z"/>
<path d="M851 1687 c-2 -33 -42 -140 -112 -297 -38 -86 -78 -191 -89 -233 -65
-255 -11 -500 143 -643 84 -79 174 -121 404 -190 211 -63 312 -106 390 -165
l54 -40 -27 52 c-36 72 -91 145 -150 199 l-49 45 -3 -27 c-10 -87 -212 41
-242 153 -10 38 -10 45 6 56 10 7 21 13 26 13 16 0 8 37 -12 55 -17 16 -24 16
-44 5 -44 -23 -72 -6 -106 63 -16 34 -34 82 -39 107 l-9 45 -1 -66 c-1 -84 19
-152 80 -267 l49 -93 -42 23 c-23 13 -78 59 -123 103 -63 61 -91 97 -118 155
-58 118 -70 183 -64 335 4 118 8 142 47 265 45 143 63 288 41 340 -7 18 -10
20 -10 7z"/>
<path d="M2765 1638 c-8 -67 8 -150 61 -318 36 -110 37 -121 38 -260 1 -113
-3 -158 -17 -205 -31 -100 -87 -195 -157 -266 -61 -62 -155 -128 -166 -116 -3
2 9 25 26 50 63 93 101 213 99 311 0 46 -4 40 -35 -58 -30 -98 -73 -133 -125
-106 -27 15 -59 -4 -59 -35 0 -15 7 -26 20 -30 15 -5 20 -15 20 -44 0 -87
-170 -233 -231 -200 -14 7 -19 17 -16 30 8 31 -9 22 -66 -33 -58 -57 -117
-140 -142 -201 l-16 -38 53 41 c86 69 161 99 443 180 327 94 480 246 515 513
22 165 -12 320 -126 567 -31 69 -69 159 -84 200 l-28 75 -7 -57z"/>
<path d="M2345 1204 c-99 -46 -262 -125 -362 -175 l-181 -91 -33 17 c-41 22
-677 245 -696 245 -3 0 85 -69 194 -153 109 -84 228 -178 266 -210 37 -31 73
-57 80 -57 6 0 50 25 96 55 46 30 91 55 100 55 10 0 38 -13 64 -30 26 -16 65
-39 87 -50 l40 -21 268 247 c147 136 269 249 271 251 19 14 -40 -11 -194 -83z"/>
<path d="M2138 879 l-137 -130 -83 55 c-45 31 -93 56 -105 56 -13 0 -51 -21
-85 -46 -35 -25 -76 -53 -91 -61 -32 -16 -29 -18 -211 140 -50 43 -101 80
-113 83 -16 4 -34 -2 -59 -21 -31 -24 -35 -32 -30 -57 6 -30 59 -116 97 -156
22 -25 26 -25 116 -6 49 9 81 -3 103 -39 29 -47 26 -75 -10 -95 -51 -29 -32
-63 48 -87 18 -5 22 -2 22 14 0 30 41 53 87 49 38 -3 38 -3 38 -46 0 -27 5
-46 15 -52 22 -14 30 -12 24 5 -4 8 -1 15 5 15 7 0 14 -7 17 -15 7 -17 46 -20
75 -5 21 12 26 45 8 55 -6 4 -8 13 -5 21 3 8 0 11 -8 8 -7 -3 -19 3 -27 12 -9
12 -10 15 -1 10 7 -4 14 -1 18 7 6 16 7 15 111 -20 23 -8 42 -18 41 -21 -5
-17 15 -52 29 -52 16 0 83 38 83 46 0 3 -14 22 -31 44 -18 22 -33 54 -36 77
-5 35 -2 43 22 61 33 26 62 28 110 5 32 -15 37 -16 69 0 37 17 85 81 107 139
13 37 12 39 -22 71 -18 18 -38 40 -44 49 -8 14 -31 -3 -147 -113z m-267 -108
c53 -52 60 -74 29 -91 -14 -8 -29 -6 -57 5 -34 15 -40 14 -69 -1 -74 -40 -89
24 -20 92 24 24 49 44 56 44 7 0 35 -22 61 -49z m-45 -145 c10 -8 16 -17 12
-21 -4 -4 -17 2 -29 14 -26 24 -13 29 17 7z m-18 -56 c-1 -24 -4 -28 -14 -19
-10 8 -11 16 -3 30 14 26 18 24 17 -11z"/>
<path d="M1769 761 c-16 -16 -29 -39 -29 -50 0 -25 13 -27 31 -5 8 10 22 14
38 11 56 -12 64 -12 68 -1 4 13 -50 74 -67 74 -6 0 -25 -13 -41 -29z"/>
</g>
</svg>
